<?xml version="1.0" encoding="UTF-8"?>
<svg width="250px" height="250px" viewBox="0 0 250 250" version="1.1" xmlns="http://www.w3.org/2000/svg" xmlns:xlink="http://www.w3.org/1999/xlink">
    <!-- Generator: Sketch 52.1 (67048) - http://www.bohemiancoding.com/sketch -->
    <title>SFO</title>
    <desc>Created with Sketch.</desc>
    <g id="SFO" stroke="none" stroke-width="1" fill="none" fill-rule="evenodd">
        <g id="Group" transform="translate(20.000000, 31.000000)" fill="#DE7C4D">
            <path d="M3.31530934,91 C1.48336385,91 0,89.4684872 0,87.5795374 C0,85.6905875 1.48336385,84.1590747 3.31530934,84.1590747 C19.2915144,84.1590747 40.032253,73.1955752 47.782164,58.7669272 C48.6613433,57.1195878 50.6714422,56.5065803 52.2903525,57.4330919 C53.8937925,58.3476144 54.4708599,60.4282472 53.5839356,62.0815609 C44.6643803,78.6846816 21.7044293,91 3.31530934,91 Z" id="Path"></path>
            <path d="M106.175896,89 C86.6277395,89 68.6257194,77.5167489 60.3161794,59.7471072 C59.5353427,58.0796861 60.2501378,56.0970643 61.9167148,55.3149137 C63.583272,54.5347035 65.5645201,55.254602 66.3375884,56.9181225 C73.5632633,72.3588356 89.1994481,82.3341964 106.175896,82.3341964 C122.204456,82.3341964 135.989888,73.6001547 143.763307,59.5408675 C144.649028,57.9356984 146.66133,57.3383834 148.285171,58.2411771 C149.893455,59.1322887 150.472292,61.1596591 149.582678,62.7706494 C140.636066,78.9487447 124.620776,89 106.175896,89 Z" id="Path"></path>
            <path d="M206.684977,91 C188.297335,91 165.334885,78.6846976 156.416027,62.0815498 C155.529174,60.4282151 156.106215,58.3476018 157.709506,57.4330789 C159.31668,56.5065872 161.330499,57.1195949 162.217332,58.7669148 C169.96664,73.1955687 190.706174,84.1590719 206.684977,84.1590719 C208.516755,84.1590719 210,85.6905854 210,87.5795359 C210,89.4684865 208.516755,91 206.684977,91 Z" id="Path"></path>
            <path d="M191.669081,150 L17.3309387,150 C15.4903569,150 14,148.540666 14,146.740741 L7,134.259259 C7,132.459334 8.49035688,131 10.3309387,131 L198.669081,131 C200.509643,131 202,132.459334 202,134.259259 L195,146.740741 C195,148.540666 193.509643,150 191.669081,150 Z M12.6618774,143.481481 L197.338142,143.481481 L197.338142,137.518538 L12.6618774,137.518538 L12.6618774,143.481481 Z" id="Shape" fill-rule="nonzero"></path>
            <path d="M62.7630236,136 C60.9743627,136 59.5260473,134.533547 59.5260473,132.724842 L59.5260473,37.1582084 C59.5260473,35.7433757 58.3462099,34.5503165 56.9470567,34.5503165 C55.631085,34.5503165 54.4739527,35.7682226 54.4739527,37.1582084 L54.4739527,132.724822 C54.4739527,134.533528 53.0256373,135.999981 51.2369764,135.999981 C49.4483155,135.999981 48,134.533528 48,132.724822 L48,37.1582084 C48,32.1948044 52.0953828,28 56.9470567,28 C61.9386556,28 66,32.1087645 66,37.1582084 L66,132.724822 C66,134.533528 64.5516845,136 62.7630236,136 Z" id="Path"></path>
            <path d="M158.762985,136 C156.974343,136 155.526028,134.506391 155.526028,132.664191 L155.526028,37.3278048 C155.526028,35.8867715 154.346191,34.6716187 152.947037,34.6716187 C151.631085,34.6716187 150.473934,35.9120785 150.473934,37.3278048 L150.473934,132.664171 C150.473934,134.506371 149.025618,135.99998 147.236976,135.99998 C145.448315,135.99998 144,134.506371 144,132.664171 L144,37.3278048 C144,32.2724859 148.095383,28 152.947057,28 C157.938656,28 162,32.1848527 162,37.3278048 L162,132.664171 C161.999962,134.506371 160.551646,136 158.762985,136 Z" id="Path"></path>
            <path d="M57.5,33 C55.5660205,33 54,31.6371048 54,29.956126 L54,4.04387404 C54,2.36289521 55.5659997,1 57.5,1 C59.4340003,1 61,2.36289521 61,4.04387404 L61,29.956126 C61,31.6370867 59.4340003,33 57.5,33 Z" id="Path"></path>
            <path d="M152.49999,33 C150.566004,33 149,31.6371048 149,29.956126 L149,3.04387404 C149,1.36289521 150.566004,-5.68434189e-14 152.49999,-5.68434189e-14 C154.433996,-5.68434189e-14 156,1.36289521 156,3.04387404 L156,29.956126 C156,31.6370867 154.433996,33 152.49999,33 Z" id="Path"></path>
            <path d="M27.5,135 C25.5659997,135 24,133.5745 24,131.816305 L24,82.1836952 C24,80.4255001 25.5659997,79 27.5,79 C29.4340003,79 31,80.4255001 31,82.1836952 L31,131.816286 C31,133.574481 29.4340003,135 27.5,135 Z" id="Path"></path>
            <path d="M182.5,135 C180.566,135 179,133.5745 179,131.816305 L179,82.1836952 C179,80.4255001 180.566,79 182.5,79 C184.433979,79 186,80.4255001 186,82.1836952 L186,131.816286 C186,133.574481 184.433979,135 182.5,135 Z" id="Path"></path>
            <path d="M106.5,137 C104.566,137 103,135.565149 103,133.79542 L103,87.2045799 C103,85.4348513 104.566,84 106.5,84 C108.434,84 110,85.4348513 110,87.2045799 L110,133.79542 C109.999979,135.56513 108.433979,137 106.5,137 Z" id="Path"></path>
            <path d="M84.5,136 C82.5659997,136 81,134.509965 81,132.672173 L81,81.3278274 C81,79.4900354 82.5659997,78 84.5,78 C86.4340003,78 88,79.4900354 88,81.3278274 L88,132.672173 C88,134.509945 86.4340003,136 84.5,136 Z" id="Path"></path>
            <path d="M126.5,136 C124.566,136 123,134.509965 123,132.672173 L123,81.3278274 C123,79.4900354 124.566,78 126.5,78 C128.434,78 130,79.4900354 130,81.3278274 L130,132.672173 C130,134.509945 128.433979,136 126.5,136 Z" id="Path"></path>
            <path d="M63,189 C61.3422855,189 60,187.2331 60,185.053827 L60,148.946197 C60,146.766923 61.3422855,145 63,145 C64.6577145,145 66,146.7669 66,148.946197 L66,185.053827 C66,187.233077 64.6577145,189 63,189 Z M51,183 C49.3422855,183 48,181.474041 48,179.591941 L48,148.408079 C48,146.525979 49.3422855,145 51,145 C52.6577145,145 54,146.525959 54,148.408079 L54,179.591941 C54,181.474021 52.6577145,183 51,183 Z" id="Shape" fill-rule="nonzero"></path>
            <path d="M158.999991,183 C157.342289,183 156,181.474041 156,179.591941 L156,148.408079 C156,146.525979 157.342289,145 158.999991,145 C160.657711,145 162,146.525959 162,148.408079 L162,179.591941 C162,181.474021 160.657711,183 158.999991,183 Z M147.000009,190 C145.342289,190 144,188.192943 144,185.964141 L144,149.035883 C144,146.807081 145.342289,145 147.000009,145 C148.657711,145 150,146.807057 150,149.035883 L150,185.964141 C150.000018,188.192919 148.657728,190 147.000009,190 Z" id="Shape" fill-rule="nonzero"></path>
        </g>
        <circle id="Oval" stroke="#DE7C4D" stroke-width="6" cx="125" cy="125" r="103"></circle>
    </g>
</svg>