<?xml version="1.0" encoding="UTF-8"?>
<svg width="135px" height="92px" viewBox="0 0 135 92" version="1.1" xmlns="http://www.w3.org/2000/svg" xmlns:xlink="http://www.w3.org/1999/xlink">
    <!-- Generator: Sketch 52.2 (67145) - http://www.bohemiancoding.com/sketch -->
    <title>taxi</title>
    <desc>Created with Sketch.</desc>
    <g id="Page-1" stroke="none" stroke-width="1" fill="none" fill-rule="evenodd">
        <g id="taxi" fill="#000000" fill-rule="nonzero">
            <path d="M132.749983,58.3454785 L132.749983,49.369251 C132.749314,49.1145798 132.705183,48.8618803 132.619481,48.6219801 C132.584807,48.5497889 132.546507,48.4793859 132.504729,48.4110387 C132.439238,48.2576411 132.356185,48.1123087 132.257225,47.9779357 C132.082203,47.8070022 131.899776,47.6437784 131.710465,47.4887313 C131.616456,47.4366586 131.518683,47.3916525 131.41796,47.3540879 C131.313154,47.2958583 131.204093,47.2455983 131.091704,47.2037361 L106.99828,40.6510901 L92.2492704,23.8408601 L92.2492704,22.4405686 C92.2492704,17.4831351 88.2197623,13.4643412 83.249112,13.4643412 L69.1188633,13.4643412 L65.1317931,1.53493489 C64.8258878,0.61892514 63.966811,0.000733076458 62.9987556,0 L53.9985972,0 C53.0305417,0.000733076458 52.1714649,0.61892514 51.8655596,1.53493489 L47.8784894,13.4643412 L31.4982011,13.4643412 C26.5275509,13.4643412 22.4980427,17.4831351 22.4980427,22.4405686 L22.4980427,24.1550281 L14.2831481,40.5366432 C8.69780851,41.2591652 4.5130045,45.9961781 4.49772584,51.6133079 L4.49772584,65.4905555 C1.40043948,66.5785917 -0.458422218,69.7359613 0.0980269165,72.9636643 C0.654476051,76.1913673 3.46397381,78.5481959 6.74776544,78.5419902 L13.6778874,78.5419902 C14.7900708,86.2655561 21.4245484,92 29.2481615,92 C37.0717746,92 43.7062522,86.2655561 44.8184356,78.5419902 L92.4405238,78.5419902 C93.5399519,85.644381 99.6688338,90.8856904 106.874528,90.8856904 C114.080222,90.8856904 120.209104,85.644381 121.308532,78.5419902 L128.249904,78.5419902 C131.044745,78.5521193 133.554587,76.8372698 134.554532,74.2343531 C135.554476,71.6314364 134.836095,68.6830085 132.749983,66.8280134 L132.749983,58.3454785 Z M121.499785,49.8629435 L128.249904,51.2093776 L128.249904,56.1014216 L123.749825,56.1014216 C122.507162,56.1014216 121.499785,55.0967231 121.499785,53.8573647 L121.499785,49.8629435 Z M100.799421,40.3930235 L65.2487952,40.3930235 L65.2487952,26.9286824 L88.9777129,26.9286824 L100.799421,40.3930235 Z M55.6208757,4.48811373 L61.376477,4.48811373 L64.3757798,13.4643412 L52.6215729,13.4643412 L55.6208757,4.48811373 Z M31.4982011,17.9524549 L83.249112,17.9524549 C85.7344371,17.9524549 87.7491912,19.9618519 87.7491912,22.4405686 L62.9987556,22.4405686 C61.756093,22.4405686 60.748716,23.4452671 60.748716,24.6846255 L60.748716,40.3930235 L56.2486368,40.3930235 L56.2486368,24.6846255 C56.2486368,23.4452671 55.2412597,22.4405686 53.9985972,22.4405686 L26.9981219,22.4405686 C26.9981219,19.9618519 29.012876,17.9524549 31.4982011,17.9524549 Z M26.1386068,26.9286824 L51.7485576,26.9286824 L51.7485576,40.3930235 L19.3884879,40.3930235 L26.1386068,26.9286824 Z M15.7479239,44.8811373 L20.2480031,44.8811373 L20.2480031,49.369251 C20.2480031,50.6086094 19.240626,51.6133079 17.9979635,51.6133079 L8.99780505,51.6133079 C8.99780505,47.8952327 12.0199362,44.8811373 15.7479239,44.8811373 Z M13.6778874,74.0538765 L6.74776544,74.0538765 C5.50510288,74.0538765 4.49772584,73.049178 4.49772584,71.8098196 C4.49772584,70.5704613 5.50510288,69.5657628 6.74776544,69.5657628 L15.0391614,69.5657628 C14.3607977,70.984672 13.9018345,72.4978717 13.6778874,74.0538765 Z M29.2481615,87.5182177 C23.0379326,87.5107986 18.0054024,82.4916496 17.9979635,76.2979334 C18.0074726,73.5733057 19.0195008,70.9469528 20.8420135,68.9172303 C20.8555138,68.903766 20.866764,68.8858135 20.8802642,68.8723492 C22.9889815,66.4612615 26.0401915,65.077555 29.2481615,65.077555 C32.4561315,65.077555 35.5073414,66.4612615 37.6160588,68.8723492 C37.629559,68.8858135 37.6408092,68.903766 37.6543095,68.9172303 C39.4768222,70.9469528 40.4888504,73.5733057 40.4983595,76.2979334 C40.4909206,82.4916496 35.4583904,87.5107986 29.2481615,87.5182177 Z M40.2486051,65.077649 C34.1420354,59.0940022 24.3542876,59.0940022 18.2477179,65.077649 L8.99780505,65.077649 L8.99780505,56.1014216 L17.9979635,56.1014216 C21.7259512,56.1014216 24.7480823,53.0873262 24.7480823,49.369251 L24.7480823,44.8811373 L105.448003,44.8811373 L116.999706,48.0228169 L116.999706,53.8573647 C116.999706,57.5754399 120.021837,60.5895353 123.749825,60.5895353 L128.249904,60.5895353 L128.249904,65.077649 L116.205442,65.077649 C110.798537,60.5899529 102.950519,60.5899529 97.5436136,65.077649 L40.2486051,65.077649 Z M92.449524,74.0538765 L44.8184356,74.0538765 C44.5944885,72.4978717 44.1355253,70.984672 43.4571616,69.5657628 L93.9142998,69.5657628 C93.1799872,70.9712411 92.6821027,72.487457 92.4405238,74.0538765 L92.449524,74.0538765 Z M106.874528,86.3961893 C101.282546,86.3961893 96.7493497,81.8750461 96.7493497,76.2979334 C96.7493497,70.7208206 101.282546,66.1996775 106.874528,66.1996775 C112.466509,66.1996775 116.999706,70.7208206 116.999706,76.2979334 C116.993506,81.8724827 112.463939,86.3900056 106.874528,86.3961893 Z M128.249904,74.0538765 L121.308532,74.0538765 C121.066953,72.487457 120.569069,70.9712411 119.834756,69.5657628 L128.249904,69.5657628 C129.492567,69.5657628 130.499944,70.5704613 130.499944,71.8098196 C130.499944,73.049178 129.492567,74.0538765 128.249904,74.0538765 Z" id="Shape"></path>
            <path d="M29,70 C25.1340068,70 22,72.9101491 22,76.5 C22,80.0898509 25.1340068,83 29,83 C32.8659932,83 36,80.0898509 36,76.5 C36,72.9101491 32.8659932,70 29,70 Z M29,78.6666667 C27.7113356,78.6666667 26.6666667,77.696617 26.6666667,76.5 C26.6666667,75.303383 27.7113356,74.3333333 29,74.3333333 C30.2886644,74.3333333 31.3333333,75.303383 31.3333333,76.5 C31.3333333,77.696617 30.2886644,78.6666667 29,78.6666667 Z" id="Shape"></path>
            <path d="M107,70 C103.134007,70 100,72.9101491 100,76.5 C100,80.0898509 103.134007,83 107,83 C110.865993,83 114,80.0898509 114,76.5 C114,72.9101491 110.865993,70 107,70 Z M107,78.6666667 C105.711336,78.6666667 104.666667,77.696617 104.666667,76.5 C104.666667,75.303383 105.711336,74.3333333 107,74.3333333 C108.288664,74.3333333 109.333333,75.303383 109.333333,76.5 C109.333333,77.696617 108.288664,78.6666667 107,78.6666667 Z" id="Shape"></path>
        </g>
    </g>
</svg>